# xmcd
#
# Track frame offsets: 
#        150
#        19903
#        38626
#        58557
#        75951
#        97242
#        115467
#        137199
#        150514
#        161227
#        181901
#        195106
#        206678
#        220079
#
# Disc length: 3058 seconds
#
# Revision: 0
# Processed by: cddbd v1.5.2PL0 Copyright (c) Steve Scherf et al.
# Submitted via: ExactAudioCopy v0.95b4
#
DISCID=b80bf00e
DTITLE=The Saddle Tramps - Greatest Hits Round 2: The Later Years 2002
DTITLE=2008
DYEAR=1900
DGENRE=Country
TTITLE0=Bulge In Satan's Pants
TTITLE1=Cal Transvestite
TTITLE2=Mexican Hot Rod
TTITLE3=(How Can I Say I Love You) With A Shotgun In My Mouth
TTITLE4=White Trash Chicks On Speed
TTITLE5=Female Trouble
TTITLE6=Susanville
TTITLE7=Christmas Behind The Wheel
TTITLE8=For Christ Sakes It's Christmas
TTITLE9=Cotton Pony Express
TTITLE10=Snow On The Hills Of Hell
TTITLE11=What Would Jesus Drink
TTITLE12=Fortune Cookie Nookie
TTITLE13=Where Eagles Dare
EXTD=
EXTT0=
EXTT1=
EXTT2=
EXTT3=
EXTT4=
EXTT5=
EXTT6=
EXTT7=
EXTT8=
EXTT9=
EXTT10=
EXTT11=
EXTT12=
EXTT13=
PLAYORDER=
